# xmcd
#
# Track frame offsets:
#	150
#	19627
#	35953
#	54231
#	72281
#	90275
#	109797
#	127782
#	144852
#	161523
#	179684
#	196816
#	212849
#	232655
#	248480
#
# Disc length: 3547 seconds
#
# Revision: 1
# Processed by: cddbd v1.5.2PL0 Copyright (c) Steve Scherf et al.
# Submitted via: audiograbber 1.83.01
#
DISCID=ba0dd90f
DTITLE=Mungo's Hi-Fi - Serious Time
DYEAR=2014
DGENRE=Dancehall Reggae 
TTITLE0=Serious Time (feat. YT)
TTITLE1=Can't Stand It (feat. Warrior Queen)
TTITLE2=31st Century Song (feat. Soom T)
TTITLE3=Bike Rider (feat. Pupajim)
TTITLE4=Thousand Style (feat. Mr. Williamz)
TTITLE5=Animal Dance (feat. Speng Bond)
TTITLE6=Thinking Of An Island (feat. Soom T)
TTITLE7=Slavery (feat. Marina P)
TTITLE8=Dancehall School (feat. Solo Banton)
TTITLE9=Nice It Up (feat. Charlie P)
TTITLE10=Gunman Posse (feat. Peter Metro and Squiddly)
TTITLE11=Overcome (feat. Blackout JA)
TTITLE12=Traveller (feat. Charlie P)
TTITLE13=Babylon A Come (feat. Parly B)
TTITLE14=Jah Say Love (feat. Cornel Campbell)
EXTD=
EXTT0=
EXTT1=
EXTT2=
EXTT3=
EXTT4=
EXTT5=
EXTT6=
EXTT7=
EXTT8=
EXTT9=
EXTT10=
EXTT11=
EXTT12=
EXTT13=
EXTT14=
PLAYORDER=
